<svg xmlns="http://www.w3.org/2000/svg" width="49" height="49" viewBox="0 0 49 49">
  <g id="Group_5" data-name="Group 5" transform="translate(-867 -396)">
    <g id="Ellipse_33" data-name="Ellipse 33" transform="translate(867 396)" fill="#fff" stroke="#bfbfbf" stroke-width="1">
      <circle cx="24.5" cy="24.5" r="24.5" stroke="none"/>
      <circle cx="24.5" cy="24.5" r="24" fill="none"/>
    </g>
    <path id="Path_238" data-name="Path 238" d="M537,6286.595a11.031,11.031,0,0,0,16.917-9.319v-.446a8.579,8.579,0,0,0,1.9-1.985,8.453,8.453,0,0,1-2.188.567h0a4.019,4.019,0,0,0,1.682-2.147,12.3,12.3,0,0,1-1.864.79c-.182.061-.385.122-.567.183a3.839,3.839,0,0,0-2.836-1.236,3.883,3.883,0,0,0-3.87,3.87,4.1,4.1,0,0,0,.1.871,11.58,11.58,0,0,1-7.942-4.012s-1.844,2.533,1.114,5.126a4,4,0,0,1-1.682-.506,3.689,3.689,0,0,0,3.059,3.849,3.528,3.528,0,0,1-1.7.061,3.829,3.829,0,0,0,3.546,2.714,7.437,7.437,0,0,1-5.673,1.621Z" transform="translate(345.108 -5860.553)" fill="#1d2120" fill-rule="evenodd"/>
  </g>
</svg>
